<svg width="295" height="299" viewBox="0 0 295 299" fill="none" xmlns="http://www.w3.org/2000/svg">
<mask id="mask0_2_298" style="mask-type:luminance" maskUnits="userSpaceOnUse" x="58" y="114" width="181" height="76">
<path d="M58.1304 114.316H238.61V118.315H58.1304V114.316ZM234.581 118.315H238.61V185.795H234.581V118.315ZM58.1304 118.315H62.076V185.795H58.1304V118.315ZM58.1304 185.795H238.61V189.879H58.1304V185.795Z" fill="white"/>
</mask>
<g mask="url(#mask0_2_298)">
<path d="M58.1304 114.316H238.625V189.875H58.1304V114.316Z" fill="#FF702A"/>
</g>
<mask id="mask1_2_298" style="mask-type:luminance" maskUnits="userSpaceOnUse" x="120" y="109" width="56" height="22">
<path d="M120.299 109.729H175.136V130.153H120.299V109.729Z" fill="white"/>
</mask>
<g mask="url(#mask1_2_298)">
<path d="M120.299 109.729H175.107V130.158H120.299V109.729Z" fill="black"/>
</g>
<mask id="mask2_2_298" style="mask-type:luminance" maskUnits="userSpaceOnUse" x="150" y="94" width="13" height="13">
<path d="M150.909 94.2183H162.886V106.444H150.909V94.2183Z" fill="white"/>
</mask>
<g mask="url(#mask2_2_298)">
<path d="M156.598 104.753C156.469 104.885 156.246 104.871 156.1 104.723L155.621 104.234C155.475 104.085 155.463 103.857 155.593 103.725L160.199 99.0281C160.328 98.8958 160.552 98.9093 160.697 99.0582L161.176 99.5462C161.322 99.6957 161.335 99.9231 161.205 100.055L156.598 104.753ZM155.14 103.262C155.01 103.395 154.788 103.381 154.641 103.232L154.163 102.744C154.015 102.595 154.002 102.366 154.133 102.234L158.739 97.5378C158.868 97.4054 159.092 97.4189 159.237 97.5679L159.716 98.0559C159.862 98.2048 159.874 98.4327 159.746 98.5656L155.14 103.262ZM153.629 101.721C153.499 101.853 153.275 101.84 153.13 101.69L152.652 101.202C152.507 101.053 152.492 100.826 152.623 100.692L157.229 95.9961C157.357 95.8642 157.582 95.8772 157.727 96.0272L158.206 96.5141C158.352 96.6636 158.364 96.892 158.236 97.0239L153.629 101.721ZM162.759 99.3842L157.887 94.4123C157.757 94.2805 157.547 94.2799 157.419 94.4123L151.071 100.885C150.941 101.018 150.941 101.232 151.071 101.365L153.204 103.543C153.204 103.543 153.63 103.458 153.785 103.616C153.939 103.774 153.807 104.158 153.807 104.158L155.94 106.336C156.069 106.468 156.281 106.468 156.408 106.336L162.759 99.8628C162.887 99.7305 162.887 99.5166 162.759 99.3842Z" fill="white"/>
</g>
<path d="M153.204 103.543L142.125 114.839L142.729 115.454L153.807 104.158L153.204 103.543Z" fill="white"/>
<path d="M153.785 103.616C153.63 103.458 153.204 103.543 153.204 103.543L153.807 104.158C153.807 104.158 153.939 103.774 153.785 103.616Z" fill="white"/>
<path d="M153.785 103.616C153.63 103.458 153.204 103.543 153.204 103.543L153.807 104.158C153.807 104.158 153.939 103.774 153.785 103.616Z" fill="white"/>
<mask id="mask3_2_298" style="mask-type:luminance" maskUnits="userSpaceOnUse" x="132" y="114" width="12" height="12">
<path d="M132.16 114.55H143.042V125.624H132.16V114.55Z" fill="white"/>
</mask>
<g mask="url(#mask3_2_298)">
<path d="M142.885 115.614L141.97 114.68C141.839 114.547 141.631 114.547 141.499 114.68L132.288 124.072C132.159 124.205 132.159 124.419 132.288 124.551L133.205 125.487C133.336 125.619 133.545 125.619 133.675 125.487L142.885 116.093C143.015 115.961 143.015 115.747 142.885 115.614Z" fill="white"/>
</g>
<mask id="mask4_2_298" style="mask-type:luminance" maskUnits="userSpaceOnUse" x="132" y="93" width="31" height="33">
<path d="M132.121 93.844H162.578V125.181H132.121V93.844Z" fill="white"/>
</mask>
<g mask="url(#mask4_2_298)">
<path d="M140.52 99.1465L134.038 93.8403L137.794 98.2786C138.741 99.2447 139.278 100.26 138.77 100.78C138.259 101.299 137.249 100.766 136.303 99.8001L132.127 95.7864L137.167 102.565C138.386 103.808 139.988 104.235 140.98 103.653L152.043 114.952L151.888 115.111C151.757 115.244 151.757 115.458 151.888 115.591L161.092 124.991C161.221 125.123 161.432 125.123 161.56 124.991L162.479 124.056C162.607 123.924 162.607 123.71 162.479 123.578L153.273 114.178C153.144 114.045 152.934 114.046 152.804 114.178L152.647 114.337L141.583 103.039C142.155 102.026 141.738 100.39 140.52 99.1465Z" fill="white"/>
</g>
<path d="M87.9469 150.154H91.7061V152.837H87.9469V160.594H85.0338V141.807H92.7407V144.49H87.9469V150.154Z" fill="white"/>
<path d="M97.2405 156.273C97.2405 156.953 97.3767 157.432 97.6502 157.71C97.9232 157.987 98.2893 158.125 98.7482 158.125C99.2071 158.125 99.5728 157.987 99.8463 157.71C100.121 157.432 100.258 156.953 100.258 156.273V146.128C100.258 145.448 100.121 144.97 99.8463 144.693C99.5728 144.415 99.2071 144.276 98.7482 144.276C98.2893 144.276 97.9232 144.415 97.6502 144.693C97.3767 144.97 97.2405 145.448 97.2405 146.128V156.273ZM94.3273 146.315C94.3273 144.795 94.7063 143.628 95.4643 142.814C96.2233 141.999 97.3183 141.591 98.7482 141.591C100.178 141.591 101.273 141.999 102.032 142.814C102.791 143.628 103.171 144.795 103.171 146.315V156.084C103.171 157.605 102.791 158.773 102.032 159.587C101.273 160.401 100.178 160.808 98.7482 160.808C97.3183 160.808 96.2233 160.401 95.4643 159.587C94.7063 158.773 94.3273 157.605 94.3273 156.084V146.315Z" fill="white"/>
<path d="M108.148 156.273C108.148 156.953 108.285 157.432 108.558 157.71C108.831 157.987 109.197 158.125 109.656 158.125C110.115 158.125 110.481 157.987 110.754 157.71C111.029 157.432 111.166 156.953 111.166 156.273V146.128C111.166 145.448 111.029 144.97 110.754 144.693C110.481 144.415 110.115 144.276 109.656 144.276C109.197 144.276 108.831 144.415 108.558 144.693C108.285 144.97 108.148 145.448 108.148 146.128V156.273ZM105.235 146.315C105.235 144.795 105.614 143.628 106.372 142.814C107.131 141.999 108.226 141.591 109.656 141.591C111.086 141.591 112.181 141.999 112.94 142.814C113.699 143.628 114.079 144.795 114.079 146.315V156.084C114.079 157.605 113.699 158.773 112.94 159.587C112.181 160.401 111.086 160.808 109.656 160.808C108.226 160.808 107.131 160.401 106.372 159.587C105.614 158.773 105.235 157.605 105.235 156.084V146.315Z" fill="white"/>
<path d="M116.381 141.807H120.988C122.453 141.807 123.543 142.201 124.258 142.988C124.973 143.775 125.331 144.929 125.331 146.45V155.951C125.331 157.473 124.973 158.627 124.258 159.415C123.543 160.201 122.453 160.594 120.988 160.594H116.381V141.807ZM119.294 144.49V157.909H120.935C121.394 157.909 121.755 157.776 122.02 157.509C122.285 157.24 122.418 156.765 122.418 156.084V146.315C122.418 145.635 122.285 145.161 122.02 144.892C121.755 144.624 121.394 144.49 120.935 144.49H119.294Z" fill="white"/>
<path d="M136.053 153.588V156.084C136.053 157.605 135.686 158.773 134.955 159.587C134.222 160.401 133.142 160.808 131.712 160.808C130.282 160.808 129.2 160.401 128.467 159.587C127.734 158.773 127.369 157.605 127.369 156.084V146.315C127.369 144.795 127.734 143.628 128.467 142.814C129.2 141.999 130.282 141.591 131.712 141.591C133.142 141.591 134.222 141.999 134.955 142.814C135.686 143.628 136.053 144.795 136.053 146.315V148.14H133.299V146.128C133.299 145.448 133.162 144.97 132.888 144.693C132.614 144.415 132.248 144.276 131.789 144.276C131.331 144.276 130.964 144.415 130.691 144.693C130.418 144.97 130.282 145.448 130.282 146.128V156.273C130.282 156.953 130.418 157.427 130.691 157.695C130.964 157.964 131.331 158.098 131.789 158.098C132.248 158.098 132.614 157.964 132.888 157.695C133.162 157.427 133.299 156.953 133.299 156.273V153.588H136.053Z" fill="white"/>
<path d="M141.163 160.594H138.249V141.807H141.163V149.859H144.473V141.807H147.437V160.594H144.473V152.542H141.163V160.594Z" fill="white"/>
<path d="M159.406 160.594H156.466L155.962 157.185H152.387L151.885 160.594H149.21L152.176 141.807H156.439L159.406 160.594ZM152.758 154.635H155.564L154.161 145.135L152.758 154.635Z" fill="white"/>
<path d="M165.467 141.807C166.932 141.807 168.022 142.201 168.736 142.988C169.452 143.775 169.81 144.929 169.81 146.45V148.892C169.81 150.413 169.452 151.567 168.736 152.355C168.022 153.141 166.932 153.534 165.467 153.534H164.09V160.594H161.177V141.807H165.467ZM164.09 144.49V150.852H165.467C165.926 150.852 166.279 150.727 166.526 150.476C166.773 150.226 166.897 149.76 166.897 149.08V146.263C166.897 145.582 166.773 145.116 166.526 144.865C166.279 144.615 165.926 144.49 165.467 144.49H164.09Z" fill="white"/>
<path d="M180.028 153.588V156.084C180.028 157.605 179.662 158.773 178.93 159.587C178.198 160.401 177.117 160.808 175.687 160.808C174.257 160.808 173.176 160.401 172.442 159.587C171.71 158.773 171.344 157.605 171.344 156.084V146.315C171.344 144.795 171.71 143.628 172.442 142.814C173.176 141.999 174.257 141.591 175.687 141.591C177.117 141.591 178.198 141.999 178.93 142.814C179.662 143.628 180.028 144.795 180.028 146.315V148.14H177.275V146.128C177.275 145.448 177.138 144.97 176.863 144.693C176.59 144.415 176.224 144.276 175.765 144.276C175.306 144.276 174.94 144.415 174.667 144.693C174.394 144.97 174.257 145.448 174.257 146.128V156.273C174.257 156.953 174.394 157.427 174.667 157.695C174.94 157.964 175.306 158.098 175.765 158.098C176.224 158.098 176.59 157.964 176.863 157.695C177.138 157.427 177.275 156.953 177.275 156.273V153.588H180.028Z" fill="white"/>
<path d="M185.138 160.594H182.225V141.807H185.138V149.859H188.449V141.807H191.413V160.594H188.449V152.542H185.138V160.594Z" fill="white"/>
<path d="M203.381 160.594H200.441L199.938 157.185H196.363L195.861 160.594H193.185L196.152 141.807H200.415L203.381 160.594ZM196.733 154.635H199.54L198.137 145.135L196.733 154.635Z" fill="white"/>
<path d="M209.442 141.807C210.908 141.807 211.998 142.201 212.712 142.988C213.428 143.775 213.785 144.929 213.785 146.45V148.892C213.785 150.413 213.428 151.567 212.712 152.355C211.998 153.141 210.908 153.534 209.442 153.534H208.066V160.594H205.153V141.807H209.442ZM208.066 144.49V150.852H209.442C209.901 150.852 210.254 150.727 210.502 150.476C210.748 150.226 210.872 149.76 210.872 149.08V146.263C210.872 145.582 210.748 145.116 210.502 144.865C210.254 144.615 209.901 144.49 209.442 144.49H208.066Z" fill="white"/>
<mask id="mask5_2_298" style="mask-type:luminance" maskUnits="userSpaceOnUse" x="96" y="178" width="103" height="21">
<path d="M96.146 178.159H198.854V198.582H96.146V178.159Z" fill="white"/>
</mask>
<g mask="url(#mask5_2_298)">
<path d="M96.146 178.159H198.861V198.587H96.146V178.159Z" fill="black"/>
</g>
<path d="M113.621 188.336L112.179 183.417H113.371L114.244 186.77L115.115 183.417H116.205L114.762 188.336V190.775H113.621V188.336Z" fill="white"/>
<path d="M118.289 189.083C118.289 189.349 118.343 189.537 118.449 189.646C118.557 189.754 118.7 189.808 118.879 189.808C119.06 189.808 119.203 189.754 119.31 189.646C119.417 189.537 119.472 189.349 119.472 189.083V185.109C119.472 184.843 119.417 184.656 119.31 184.548C119.203 184.439 119.06 184.384 118.879 184.384C118.7 184.384 118.557 184.439 118.449 184.548C118.343 184.656 118.289 184.843 118.289 185.109V189.083ZM117.148 185.182C117.148 184.587 117.296 184.13 117.593 183.811C117.89 183.491 118.319 183.332 118.879 183.332C119.441 183.332 119.869 183.491 120.166 183.811C120.464 184.13 120.613 184.587 120.613 185.182V189.008C120.613 189.605 120.464 190.063 120.166 190.383C119.869 190.702 119.441 190.861 118.879 190.861C118.319 190.861 117.89 190.702 117.593 190.383C117.296 190.063 117.148 189.605 117.148 189.008V185.182Z" fill="white"/>
<path d="M123.019 183.417V189.094C123.019 189.359 123.072 189.545 123.179 189.65C123.286 189.755 123.431 189.808 123.611 189.808C123.79 189.808 123.933 189.755 124.039 189.65C124.147 189.545 124.201 189.359 124.201 189.094V183.417H125.281V189.019C125.281 189.616 125.137 190.074 124.85 190.393C124.564 190.712 124.14 190.871 123.58 190.871C123.019 190.871 122.595 190.712 122.308 190.393C122.021 190.074 121.878 189.616 121.878 189.019V183.417H123.019Z" fill="white"/>
<path d="M129.876 189.083C129.876 189.349 129.929 189.537 130.036 189.646C130.143 189.754 130.287 189.808 130.466 189.808C130.646 189.808 130.79 189.754 130.896 189.646C131.004 189.537 131.058 189.349 131.058 189.083V185.109C131.058 184.843 131.004 184.656 130.896 184.548C130.79 184.439 130.646 184.384 130.466 184.384C130.287 184.384 130.143 184.439 130.036 184.548C129.929 184.656 129.876 184.843 129.876 185.109V189.083ZM128.735 185.182C128.735 184.587 128.883 184.13 129.18 183.811C129.477 183.491 129.906 183.332 130.466 183.332C131.027 183.332 131.456 183.491 131.753 183.811C132.05 184.13 132.199 184.587 132.199 185.182V189.008C132.199 189.605 132.05 190.063 131.753 190.383C131.456 190.702 131.027 190.861 130.466 190.861C129.906 190.861 129.477 190.702 129.18 190.383C128.883 190.063 128.735 189.605 128.735 189.008V185.182Z" fill="white"/>
<path d="M135.902 190.775C135.889 190.727 135.875 190.682 135.861 190.641C135.848 190.598 135.835 190.545 135.825 190.483C135.813 190.419 135.806 190.338 135.802 190.24C135.799 190.142 135.798 190.019 135.798 189.872V188.716C135.798 188.373 135.739 188.131 135.622 187.991C135.504 187.85 135.314 187.779 135.052 187.779H134.657V190.775H133.518V183.417H135.239C135.833 183.417 136.263 183.557 136.529 183.838C136.796 184.118 136.929 184.542 136.929 185.109V185.688C136.929 186.444 136.68 186.941 136.183 187.179C136.472 187.3 136.671 187.495 136.777 187.765C136.885 188.034 136.939 188.361 136.939 188.747V189.883C136.939 190.064 136.946 190.223 136.959 190.36C136.974 190.497 137.009 190.636 137.064 190.775H135.902ZM134.657 184.467V186.729H135.103C135.318 186.729 135.485 186.673 135.605 186.56C135.727 186.448 135.788 186.245 135.788 185.95V185.225C135.788 184.958 135.741 184.765 135.648 184.646C135.555 184.527 135.409 184.467 135.208 184.467H134.657Z" fill="white"/>
<path d="M138.269 183.417H140.072C140.646 183.417 141.074 183.571 141.354 183.88C141.634 184.187 141.774 184.639 141.774 185.236V188.957C141.774 189.552 141.634 190.004 141.354 190.312C141.074 190.621 140.646 190.775 140.072 190.775H138.269V183.417ZM139.408 184.467V189.725H140.051C140.231 189.725 140.373 189.672 140.477 189.567C140.581 189.462 140.633 189.276 140.633 189.008V185.182C140.633 184.916 140.581 184.731 140.477 184.625C140.373 184.52 140.231 184.467 140.051 184.467H139.408Z" fill="white"/>
<path d="M144.221 186.517H145.788V187.57H144.221V189.725H146.192V190.775H143.082V183.417H146.192V184.467H144.221V186.517Z" fill="white"/>
<path d="M149.865 190.775C149.851 190.727 149.837 190.682 149.824 190.641C149.81 190.598 149.797 190.545 149.787 190.483C149.775 190.419 149.768 190.338 149.764 190.24C149.761 190.142 149.76 190.019 149.76 189.872V188.716C149.76 188.373 149.701 188.131 149.584 187.991C149.466 187.85 149.277 187.779 149.014 187.779H148.619V190.775H147.48V183.417H149.201C149.795 183.417 150.225 183.557 150.491 183.838C150.758 184.118 150.891 184.542 150.891 185.109V185.688C150.891 186.444 150.642 186.941 150.145 187.179C150.435 187.3 150.633 187.495 150.739 187.765C150.847 188.034 150.901 188.361 150.901 188.747V189.883C150.901 190.064 150.908 190.223 150.922 190.36C150.936 190.497 150.971 190.636 151.026 190.775H149.865ZM148.619 184.467V186.729H149.066C149.28 186.729 149.447 186.673 149.567 186.56C149.689 186.448 149.75 186.245 149.75 185.95V185.225C149.75 184.958 149.703 184.765 149.61 184.646C149.517 184.527 149.371 184.467 149.17 184.467H148.619Z" fill="white"/>
<path d="M152.231 190.775V189.66H153.329V190.659L152.831 191.826H152.364L152.665 190.775H152.231Z" fill="white"/>
<path d="M157.271 186.853L156.855 190.775H155.29L154.481 183.417H155.591L156.202 189.22L156.753 183.417H157.851L158.422 189.262L159.012 183.417H160.01L159.201 190.775H157.685L157.271 186.853Z" fill="white"/>
<path d="M162.301 186.517H163.868V187.57H162.301V189.725H164.272V190.775H161.162V183.417H164.272V184.467H162.301V186.517Z" fill="white"/>
<path d="M171.057 188.032V189.008C171.057 189.605 170.913 190.063 170.625 190.383C170.338 190.702 169.915 190.861 169.355 190.861C168.795 190.861 168.372 190.702 168.085 190.383C167.798 190.063 167.655 189.605 167.655 189.008V185.182C167.655 184.587 167.798 184.13 168.085 183.811C168.372 183.491 168.795 183.332 169.355 183.332C169.915 183.332 170.338 183.491 170.625 183.811C170.913 184.13 171.057 184.587 171.057 185.182V185.898H169.978V185.109C169.978 184.843 169.924 184.656 169.816 184.548C169.709 184.439 169.566 184.384 169.386 184.384C169.207 184.384 169.063 184.439 168.956 184.548C168.849 184.656 168.796 184.843 168.796 185.109V189.083C168.796 189.349 168.849 189.535 168.956 189.64C169.063 189.745 169.207 189.797 169.386 189.797C169.566 189.797 169.709 189.745 169.816 189.64C169.924 189.535 169.978 189.349 169.978 189.083V188.032H171.057Z" fill="white"/>
<path d="M173.381 189.083C173.381 189.349 173.434 189.537 173.54 189.646C173.648 189.754 173.791 189.808 173.971 189.808C174.151 189.808 174.294 189.754 174.401 189.646C174.508 189.537 174.563 189.349 174.563 189.083V185.109C174.563 184.843 174.508 184.656 174.401 184.548C174.294 184.439 174.151 184.384 173.971 184.384C173.791 184.384 173.648 184.439 173.54 184.548C173.434 184.656 173.381 184.843 173.381 185.109V189.083ZM172.24 185.182C172.24 184.587 172.388 184.13 172.684 183.811C172.982 183.491 173.41 183.332 173.971 183.332C174.532 183.332 174.961 183.491 175.257 183.811C175.555 184.13 175.704 184.587 175.704 185.182V189.008C175.704 189.605 175.555 190.063 175.257 190.383C174.961 190.702 174.532 190.861 173.971 190.861C173.41 190.861 172.982 190.702 172.684 190.383C172.388 190.063 172.24 189.605 172.24 189.008V185.182Z" fill="white"/>
<path d="M178.069 189.083C178.069 189.349 178.123 189.537 178.229 189.646C178.337 189.754 178.48 189.808 178.659 189.808C178.84 189.808 178.983 189.754 179.089 189.646C179.197 189.537 179.251 189.349 179.251 189.083V185.109C179.251 184.843 179.197 184.656 179.089 184.548C178.983 184.439 178.84 184.384 178.659 184.384C178.48 184.384 178.337 184.439 178.229 184.548C178.123 184.656 178.069 184.843 178.069 185.109V189.083ZM176.928 185.182C176.928 184.587 177.076 184.13 177.373 183.811C177.67 183.491 178.099 183.332 178.659 183.332C179.221 183.332 179.649 183.491 179.946 183.811C180.243 184.13 180.392 184.587 180.392 185.182V189.008C180.392 189.605 180.243 190.063 179.946 190.383C179.649 190.702 179.221 190.861 178.659 190.861C178.099 190.861 177.67 190.702 177.373 190.383C177.076 190.063 176.928 189.605 176.928 189.008V185.182Z" fill="white"/>
<path d="M183.204 187.842L182.85 188.514V190.775H181.711V183.417H182.85V186.623L184.366 183.417H185.484L183.899 186.697L185.484 190.775H184.313L183.204 187.842Z" fill="white"/>
</svg>
